<svg width="22" height="23" viewBox="0 0 22 23" fill="none" xmlns="http://www.w3.org/2000/svg">
<path d="M4.33341 6.77734H17.6667C18.374 6.77734 19.0523 7.0583 19.5524 7.55839C20.0525 8.05849 20.3334 8.73677 20.3334 9.44401V13.444C20.3334 14.1513 20.0525 14.8295 19.5524 15.3296C19.0523 15.8297 18.374 16.1107 17.6667 16.1107H4.33341C3.62617 16.1107 2.94789 15.8297 2.4478 15.3296C1.9477 14.8295 1.66675 14.1513 1.66675 13.444V9.44401C1.66675 8.73677 1.9477 8.05849 2.4478 7.55839C2.94789 7.0583 3.62617 6.77734 4.33341 6.77734ZM4.33341 8.11068C3.97979 8.11068 3.64065 8.25115 3.39061 8.5012C3.14056 8.75125 3.00008 9.09039 3.00008 9.44401V13.444C3.00008 13.7976 3.14056 14.1368 3.39061 14.3868C3.64065 14.6369 3.97979 14.7773 4.33341 14.7773H17.6667C18.0204 14.7773 18.3595 14.6369 18.6096 14.3868C18.8596 14.1368 19.0001 13.7976 19.0001 13.444V9.44401C19.0001 9.09039 18.8596 8.75125 18.6096 8.5012C18.3595 8.25115 18.0204 8.11068 17.6667 8.11068H4.33341ZM1.66675 3.44401C1.66675 3.2672 1.73699 3.09763 1.86201 2.97261C1.98703 2.84758 2.1566 2.77734 2.33341 2.77734H19.6667C19.8436 2.77734 20.0131 2.84758 20.1382 2.97261C20.2632 3.09763 20.3334 3.2672 20.3334 3.44401C20.3334 3.62082 20.2632 3.79039 20.1382 3.91541C20.0131 4.04044 19.8436 4.11068 19.6667 4.11068H2.33341C2.1566 4.11068 1.98703 4.04044 1.86201 3.91541C1.73699 3.79039 1.66675 3.62082 1.66675 3.44401ZM1.66675 19.444C1.66675 19.2672 1.73699 19.0976 1.86201 18.9726C1.98703 18.8476 2.1566 18.7773 2.33341 18.7773H19.6667C19.8436 18.7773 20.0131 18.8476 20.1382 18.9726C20.2632 19.0976 20.3334 19.2672 20.3334 19.444C20.3334 19.6208 20.2632 19.7904 20.1382 19.9154C20.0131 20.0404 19.8436 20.1107 19.6667 20.1107H2.33341C2.1566 20.1107 1.98703 20.0404 1.86201 19.9154C1.73699 19.7904 1.66675 19.6208 1.66675 19.444Z" fill="black"/>
</svg>
