<svg width="25" height="25" viewBox="0 0 25 25" fill="none" xmlns="http://www.w3.org/2000/svg">
<path d="M16.7036 19.7031C15.8784 19.7031 15.0871 19.3753 14.5037 18.7919C13.9202 18.2084 13.5924 17.4171 13.5924 16.592C13.5924 15.7669 13.9202 14.9755 14.5037 14.3921C15.0871 13.8086 15.8784 13.4809 16.7036 13.4809C17.5287 13.4809 18.32 13.8086 18.9034 14.3921C19.4869 14.9755 19.8147 15.7669 19.8147 16.592C19.8147 17.4171 19.4869 18.2084 18.9034 18.7919C18.32 19.3753 17.5287 19.7031 16.7036 19.7031ZM8.40725 19.7031C7.58214 19.7031 6.79081 19.3753 6.20737 18.7919C5.62392 18.2084 5.29614 17.4171 5.29614 16.592C5.29614 15.7669 5.62392 14.9755 6.20737 14.3921C6.79081 13.8086 7.58214 13.4809 8.40725 13.4809C9.23237 13.4809 10.0237 13.8086 10.6071 14.3921C11.1906 14.9755 11.5184 15.7669 11.5184 16.592C11.5184 17.4171 11.1906 18.2084 10.6071 18.7919C10.0237 19.3753 9.23237 19.7031 8.40725 19.7031ZM16.7036 11.4068C15.8784 11.4068 15.0871 11.079 14.5037 10.4956C13.9202 9.91212 13.5924 9.1208 13.5924 8.29568C13.5924 7.47056 13.9202 6.67924 14.5037 6.09579C15.0871 5.51235 15.8784 5.18457 16.7036 5.18457C17.5287 5.18457 18.32 5.51235 18.9034 6.09579C19.4869 6.67924 19.8147 7.47056 19.8147 8.29568C19.8147 9.1208 19.4869 9.91212 18.9034 10.4956C18.32 11.079 17.5287 11.4068 16.7036 11.4068ZM8.40725 11.4068C7.58214 11.4068 6.79081 11.079 6.20737 10.4956C5.62392 9.91212 5.29614 9.1208 5.29614 8.29568C5.29614 7.47056 5.62392 6.67924 6.20737 6.09579C6.79081 5.51235 7.58214 5.18457 8.40725 5.18457C9.23237 5.18457 10.0237 5.51235 10.6071 6.09579C11.1906 6.67924 11.5184 7.47056 11.5184 8.29568C11.5184 9.1208 11.1906 9.91212 10.6071 10.4956C10.0237 11.079 9.23237 11.4068 8.40725 11.4068Z" fill="black"/>
</svg>
