<svg width="23" height="24" viewBox="0 0 23 24" fill="none" xmlns="http://www.w3.org/2000/svg">
<path d="M19.6878 7.2375H8.0476M5.9312 7.2375H2.75659M19.6878 17.8195H8.0476M5.9312 17.8195H2.75659M14.3968 12.5285H2.75659M19.6878 12.5285H16.5132M6.9894 5.12109C7.27005 5.12109 7.53921 5.23258 7.73766 5.43103C7.93611 5.62949 8.0476 5.89864 8.0476 6.17929V8.2957C8.0476 8.57635 7.93611 8.84551 7.73766 9.04396C7.53921 9.24241 7.27005 9.3539 6.9894 9.3539C6.70874 9.3539 6.43959 9.24241 6.24114 9.04396C6.04268 8.84551 5.9312 8.57635 5.9312 8.2957V6.17929C5.9312 5.89864 6.04268 5.62949 6.24114 5.43103C6.43959 5.23258 6.70874 5.12109 6.9894 5.12109V5.12109ZM6.9894 15.7031C7.27005 15.7031 7.53921 15.8146 7.73766 16.013C7.93611 16.2115 8.0476 16.4807 8.0476 16.7613V18.8777C8.0476 19.1584 7.93611 19.4275 7.73766 19.626C7.53921 19.8244 7.27005 19.9359 6.9894 19.9359C6.70874 19.9359 6.43959 19.8244 6.24114 19.626C6.04268 19.4275 5.9312 19.1584 5.9312 18.8777V16.7613C5.9312 16.4807 6.04268 16.2115 6.24114 16.013C6.43959 15.8146 6.70874 15.7031 6.9894 15.7031ZM15.455 10.4121C15.7357 10.4121 16.0048 10.5236 16.2033 10.722C16.4017 10.9205 16.5132 11.1896 16.5132 11.4703V13.5867C16.5132 13.8674 16.4017 14.1365 16.2033 14.335C16.0048 14.5334 15.7357 14.6449 15.455 14.6449C15.1744 14.6449 14.9052 14.5334 14.7067 14.335C14.5083 14.1365 14.3968 13.8674 14.3968 13.5867V11.4703C14.3968 11.1896 14.5083 10.9205 14.7067 10.722C14.9052 10.5236 15.1744 10.4121 15.455 10.4121V10.4121Z" stroke="black" stroke-width="0.888889" stroke-linecap="round" stroke-linejoin="round"/>
</svg>
